<svg width="33" height="26" viewBox="0 0 33 26" fill="none" xmlns="http://www.w3.org/2000/svg">
<path d="M3.3 26C2.3925 26 1.6159 25.682 0.9702 25.0461C0.3234 24.4091 0 23.6437 0 22.75V3.25C0 2.35625 0.3234 1.59142 0.9702 0.9555C1.6159 0.3185 2.3925 0 3.3 0H29.7C30.6075 0 31.3846 0.3185 32.0314 0.9555C32.6772 1.59142 33 2.35625 33 3.25V22.75C33 23.6437 32.6772 24.4091 32.0314 25.0461C31.3846 25.682 30.6075 26 29.7 26H3.3ZM16.5 14.3406C16.6375 14.3406 16.7816 14.32 16.9323 14.2789C17.0841 14.2388 17.2287 14.1781 17.3662 14.0969L29.04 6.90625C29.26 6.77083 29.425 6.60183 29.535 6.39925C29.645 6.19558 29.7 5.97188 29.7 5.72813C29.7 5.18646 29.4663 4.78021 28.9988 4.50938C28.5312 4.23854 28.05 4.25208 27.555 4.55L16.5 11.375L5.445 4.55C4.95 4.25208 4.46875 4.24504 4.00125 4.52888C3.53375 4.81379 3.3 5.21354 3.3 5.72813C3.3 5.99896 3.355 6.23567 3.465 6.43825C3.575 6.64192 3.74 6.79792 3.96 6.90625L15.6337 14.0969C15.7713 14.1781 15.9159 14.2388 16.0677 14.2789C16.2184 14.32 16.3625 14.3406 16.5 14.3406Z" fill="#33D5BE"/>
</svg>
