<svg width="32" height="31" viewBox="0 0 32 31" fill="none" xmlns="http://www.w3.org/2000/svg">
<path d="M30.2002 31C26.0405 31 22.1278 30.2379 18.462 28.7137C14.7951 27.1896 11.5954 25.1038 8.86287 22.4564C6.12924 19.808 3.96944 16.708 2.38344 13.1564C0.796386 9.6038 0.00285689 5.79958 0.00285689 1.74375C-0.0238074 1.27875 0.136178 0.871616 0.482814 0.52235C0.82945 0.174116 1.25608 0 1.7627 0H8.00214C8.4821 0 8.8954 0.174116 9.24203 0.52235C9.58867 0.871616 9.76199 1.29167 9.76199 1.7825C9.76199 2.91917 9.84198 3.99125 10.002 4.99875C10.162 6.00625 10.4153 6.96208 10.7619 7.86625C10.8952 8.15042 10.9219 8.44078 10.8419 8.73735C10.7619 9.03495 10.6019 9.31292 10.3619 9.57125L6.36229 13.4462C7.50885 15.7196 9.13537 17.8767 11.2419 19.9175C13.3483 21.9583 15.6148 23.5858 18.0412 24.8L22.0409 20.925C22.2809 20.6925 22.5608 20.5375 22.8808 20.46C23.2008 20.3825 23.5208 20.4083 23.8407 20.5375C24.8273 20.8475 25.847 21.0862 26.8997 21.2536C27.9534 21.422 29.0403 21.5062 30.1602 21.5062C30.6668 21.5062 31.1003 21.6871 31.4608 22.0487C31.8203 22.4104 32 22.8496 32 23.3663V29.295C32 29.76 31.8267 30.1604 31.48 30.4962C31.1334 30.8321 30.7068 31 30.2002 31ZM28.8003 15.5C28.8003 12.0383 27.5604 9.10625 25.0806 6.70375C22.6008 4.30125 19.5744 3.1 16.0014 3.1V0C18.2146 0 20.2944 0.406617 22.2409 1.21985C24.1874 2.03412 25.8805 3.13875 27.3204 4.53375C28.7603 5.92875 29.8999 7.56917 30.7393 9.455C31.5798 11.3408 32 13.3558 32 15.5H28.8003ZM22.4009 15.5C22.4009 13.795 21.7742 12.3354 20.521 11.1213C19.2678 9.90708 17.7613 9.3 16.0014 9.3V6.2C18.6679 6.2 20.9343 7.10417 22.8008 8.9125C24.6673 10.7208 25.6006 12.9167 25.6006 15.5H22.4009Z" fill="#33D5BE"/>
</svg>
