<svg width="37" height="39" viewBox="0 0 37 39" fill="none" xmlns="http://www.w3.org/2000/svg">
<path d="M17.5189 0C14.3875 0.0455 7.66001 0.559 3.90139 4.00887C1.10964 6.80387 0.124889 10.8875 0.0225144 15.9526C-0.0798606 21.0161 -0.213111 30.511 8.93889 33.085H8.94376L8.93726 37.011C8.93726 37.011 8.87714 38.5986 9.92851 38.9236C11.1911 39.3169 11.9338 38.1111 13.146 36.8079C13.8074 36.0929 14.7255 35.0464 15.4161 34.2404C21.6724 34.7701 26.4856 33.5644 27.0349 33.3872C28.2959 32.9777 35.4459 32.0612 36.6094 22.5696C37.8119 12.7871 36.0244 6.59587 32.8069 3.80737C31.8384 2.91362 27.9221 0.069875 19.1975 0.0325C19.1975 0.0325 18.5556 -0.008125 17.5124 0.004875L17.5189 0ZM17.6131 2.75112C18.4988 2.74462 19.0431 2.77875 19.0431 2.77875C26.4239 2.81125 29.9583 5.03425 30.7789 5.7785C33.5008 8.11037 34.8901 13.689 33.8761 21.8611V21.8644C32.8946 29.7911 27.0934 30.2884 26.0241 30.6313C25.5691 30.7775 21.3409 31.8289 16.0255 31.4827C16.0255 31.4827 12.067 36.2603 10.8304 37.5017C10.6354 37.6967 10.4079 37.7731 10.2584 37.7357C10.0471 37.6821 9.98864 37.4303 9.99026 37.063L10.0228 30.5338C2.28451 28.3888 2.73464 20.3092 2.82401 16.0794C2.91176 11.8479 3.70639 8.38013 6.06751 6.04825C9.25251 3.16712 14.9628 2.769 17.6213 2.7495L17.6131 2.75112ZM18.2306 6.97937C18.1047 6.98573 17.9859 7.04004 17.8986 7.13117C17.8114 7.2223 17.7624 7.34335 17.7615 7.46949C17.7607 7.59564 17.8082 7.71732 17.8942 7.80959C17.9802 7.90187 18.0982 7.95774 18.2241 7.96575C20.8631 7.982 23.0114 8.83838 24.7696 10.5527C26.5133 12.2525 27.4021 14.5632 27.4233 17.5955C27.4265 17.8669 27.6508 18.083 27.9221 18.083C28.052 18.0813 28.176 18.0285 28.2673 17.936C28.3585 17.8436 28.4096 17.7189 28.4096 17.589C28.3869 14.365 27.4054 11.7455 25.4586 9.8475C23.5249 7.9625 21.0825 6.99888 18.2306 6.97937ZM11.7956 8.10875C11.4502 8.06091 11.0985 8.1277 10.7946 8.29887L10.7784 8.30212C10.0796 8.7035 9.45239 9.21537 8.91614 9.81662C8.91289 9.82312 8.90639 9.82312 8.90314 9.82962C8.46926 10.3545 8.22064 10.8664 8.15564 11.3701C8.14291 11.4452 8.13909 11.5216 8.14426 11.5976C8.14426 11.8186 8.18001 12.0364 8.24989 12.2476L8.27101 12.2639C8.49039 13.0439 9.03964 14.3374 10.2291 16.4954C10.9116 17.7434 11.6965 18.9329 12.5789 20.0476C13.0176 20.6066 13.4889 21.1413 13.9926 21.6466L14.2071 21.8611C14.7109 22.3616 15.2471 22.8361 15.8061 23.2749C16.9218 24.1574 18.1101 24.944 19.3584 25.6263C21.5164 26.8174 22.8131 27.365 23.5899 27.586L23.6061 27.6087C23.8888 27.7012 24.1881 27.7317 24.4836 27.6981C24.9874 27.6396 25.5025 27.3894 26.0241 26.9506C26.0306 26.9506 26.029 26.9474 26.0371 26.9425C26.6384 26.4062 27.147 25.7725 27.5484 25.077L27.5533 25.0607C27.9189 24.3587 27.797 23.6925 27.2608 23.2407C27.2543 23.2407 26.1265 22.2983 25.5756 21.892C24.9906 21.4776 24.3894 21.0925 23.767 20.7383C22.9383 20.2751 22.09 20.566 21.739 21.021L21.0126 21.9375C20.6389 22.3974 19.945 22.3372 19.945 22.3372C14.875 21.0438 13.5181 15.9104 13.5181 15.9104C13.5181 15.9104 13.458 15.2181 13.9211 14.8444L14.836 14.1164C15.2861 13.767 15.577 12.9187 15.1123 12.0884C14.7593 11.4648 14.3742 10.8601 13.9585 10.2765C13.5221 9.70543 13.0724 9.14465 12.6098 8.59463C12.406 8.33944 12.1158 8.16775 11.794 8.112L11.7956 8.10875ZM19.0919 9.53875C18.9613 9.53487 18.8345 9.58303 18.7394 9.67262C18.6444 9.76222 18.5888 9.88591 18.5849 10.0165C18.581 10.1471 18.6292 10.2739 18.7188 10.3689C18.8084 10.464 18.9321 10.5196 19.0626 10.5235C20.9476 10.6616 22.3403 11.2808 23.3608 12.3923C24.3845 13.5103 24.872 14.8688 24.833 16.5685C24.8401 16.6935 24.8941 16.8112 24.9841 16.8981C25.0742 16.985 25.1937 17.0348 25.3189 17.0375C25.444 17.0401 25.5656 16.9955 25.6592 16.9125C25.7529 16.8295 25.8118 16.7142 25.8243 16.5896C25.8649 14.6802 25.2815 13.026 24.0904 11.7244C22.8879 10.4081 21.2028 9.68825 19.1341 9.53712H19.0951L19.0919 9.53875ZM19.8443 12.1875C19.7191 12.1893 19.5993 12.2384 19.5089 12.3249C19.4185 12.4114 19.3641 12.529 19.3568 12.6539C19.3438 12.9253 19.5518 13.1576 19.8248 13.1739C20.6746 13.2194 21.2466 13.4583 21.6334 13.8596C22.0234 14.2578 22.2639 14.8671 22.3094 15.7511C22.3261 15.8736 22.3882 15.9854 22.4833 16.0644C22.5785 16.1434 22.6998 16.1838 22.8233 16.1777C22.9468 16.1715 23.0635 16.1193 23.1504 16.0313C23.2373 15.9433 23.288 15.8259 23.2925 15.7024C23.2438 14.6559 22.9431 13.7881 22.35 13.1722C21.7536 12.558 20.8989 12.2395 19.88 12.1859H19.8508L19.8443 12.1875Z" fill="#33D5BE"/>
</svg>
